<svg width="552" height="159" viewBox="0 0 552 159" fill="none" xmlns="http://www.w3.org/2000/svg">
<g filter="url(#filter0_d_33_9)">
<path d="M191.219 84.0312L194 84.1562C198.042 84.1562 201.375 82.8229 204 80.1562C206.667 77.4688 208.062 73.9896 208.188 69.7188C208.417 63.1354 205.25 58.6875 198.688 56.375C196.229 55.5 193.031 55.0625 189.094 55.0625H186.469V97H170.531V52.7812H182.5C188.958 52.7812 192.854 52.875 194.188 53.0625C195.521 53.25 196.906 53.4896 198.344 53.7812C199.802 54.0729 201.365 54.7083 203.031 55.6875C204.719 56.6667 206.146 57.8333 207.312 59.1875C209.667 61.9375 210.802 65.1667 210.719 68.875C210.594 73.6042 209.208 77.5417 206.562 80.6875C203.875 83.8542 200.167 85.8125 195.438 86.5625C194.062 86.75 192.979 86.8438 192.188 86.8438C190.312 86.8438 189.375 86.3333 189.375 85.3125C189.375 84.9375 189.542 84.6354 189.875 84.4062C190.208 84.1562 190.656 84.0312 191.219 84.0312ZM238.75 94.9375C236.083 96.7083 233.125 97.5938 229.875 97.5938C225.562 97.5938 222.104 96.5104 219.5 94.3438C216.792 92.1146 215.438 89.0208 215.438 85.0625C215.438 81.5625 216.781 78.6875 219.469 76.4375C222.219 74.1667 225.833 73.0312 230.312 73.0312C233.312 73.0312 236.125 73.6042 238.75 74.75V66.1562C236.854 65.6146 235.177 65.3438 233.719 65.3438C232.281 65.3438 231.062 65.4062 230.062 65.5312C229.062 65.6562 228.115 65.8438 227.219 66.0938C225.281 66.6354 223.812 67.3646 222.812 68.2812C222.229 68.8229 221.698 69.0938 221.219 69.0938C220.74 69.0938 220.375 68.9792 220.125 68.75C219.875 68.5 219.75 68.2292 219.75 67.9375C219.75 67.6458 219.802 67.3854 219.906 67.1562C220.01 66.9062 220.208 66.6562 220.5 66.4062C221.125 65.8646 222.167 65.3229 223.625 64.7812C226.646 63.6354 229.677 63.0625 232.719 63.0625C241.969 63.0625 247.875 65.2708 250.438 69.6875C251.562 71.6458 252.125 74.2188 252.125 77.4062V97H238.75V94.9375ZM238.75 77.1875C236.125 75.9167 233.51 75.2812 230.906 75.2812C230.49 75.2812 230.094 75.3125 229.719 75.375V95.25C229.823 95.2708 229.938 95.2812 230.062 95.2812C230.188 95.2812 230.312 95.2812 230.438 95.2812C233.292 95.2812 236.062 94.2708 238.75 92.25V77.1875ZM261.906 52.7812H275.344V97H261.906V52.7812ZM314.594 89.4062C315.406 89.4062 315.812 89.7812 315.812 90.5312C315.812 91.0938 315.448 91.7604 314.719 92.5312C311.427 95.9062 306.917 97.5938 301.188 97.5938C296.042 97.5938 291.708 96.0417 288.188 92.9375C284.542 89.7083 282.719 85.625 282.719 80.6875C282.719 75.6458 284.365 71.5 287.656 68.25C291.135 64.7917 295.76 63.0625 301.531 63.0625C306.156 63.0625 310.042 64.4688 313.188 67.2812C316.583 70.3021 318.281 74.2708 318.281 79.1875C318.281 79.8958 318.26 80.6458 318.219 81.4375H297.594V94.8438C299.01 95.1354 300.604 95.2812 302.375 95.2812C306.125 95.2812 309.323 94.0417 311.969 91.5625C312.51 91.0208 312.896 90.5938 313.125 90.2812C313.604 89.6979 314.094 89.4062 314.594 89.4062ZM306.25 65.9375C304.896 65.5417 303.365 65.3438 301.656 65.3438C299.948 65.3438 298.594 65.4583 297.594 65.6875V79.1562H306.25V65.9375ZM339.062 97.5938C330.896 97.5938 326.812 93.8646 326.812 86.4062L326.781 65.9062L323.188 66.0625C322.062 66.0625 321.5 65.6354 321.5 64.7812C321.5 63.9271 322.104 63.5 323.312 63.5L326.312 63.625H326.781V58.7812L340.188 52.7812V63.625H344.375L347.344 63.5C348.573 63.5 349.188 63.9375 349.188 64.8125C349.188 65.2083 349.01 65.5208 348.656 65.75C348.323 65.9583 347.938 66.0625 347.5 66.0625L343.625 65.9062H340.188V95.2812C342.625 95.2396 344.656 94.5417 346.281 93.1875C347.052 92.6042 347.594 91.8542 347.906 90.9375C348.24 90.0208 348.531 89.4375 348.781 89.1875C349.052 88.9167 349.365 88.7812 349.719 88.7812C350.073 88.7812 350.375 88.9271 350.625 89.2188C350.875 89.4896 351 89.8229 351 90.2188C351 90.5938 350.896 91.0208 350.688 91.5C350.479 91.9583 350.167 92.4479 349.75 92.9688C348.812 94.1354 347.729 95.0625 346.5 95.75C344.271 96.9792 341.792 97.5938 339.062 97.5938ZM369.188 97.5938C361.021 97.5938 356.938 93.8646 356.938 86.4062L356.906 65.9062L353.312 66.0625C352.188 66.0625 351.625 65.6354 351.625 64.7812C351.625 63.9271 352.229 63.5 353.438 63.5L356.438 63.625H356.906V58.7812L370.312 52.7812V63.625H374.5L377.469 63.5C378.698 63.5 379.312 63.9375 379.312 64.8125C379.312 65.2083 379.135 65.5208 378.781 65.75C378.448 65.9583 378.062 66.0625 377.625 66.0625L373.75 65.9062H370.312V95.2812C372.75 95.2396 374.781 94.5417 376.406 93.1875C377.177 92.6042 377.719 91.8542 378.031 90.9375C378.365 90.0208 378.656 89.4375 378.906 89.1875C379.177 88.9167 379.49 88.7812 379.844 88.7812C380.198 88.7812 380.5 88.9271 380.75 89.2188C381 89.4896 381.125 89.8229 381.125 90.2188C381.125 90.5938 381.021 91.0208 380.812 91.5C380.604 91.9583 380.292 92.4479 379.875 92.9688C378.938 94.1354 377.854 95.0625 376.625 95.75C374.396 96.9792 371.917 97.5938 369.188 97.5938ZM415.469 89.4062C416.281 89.4062 416.688 89.7812 416.688 90.5312C416.688 91.0938 416.323 91.7604 415.594 92.5312C412.302 95.9062 407.792 97.5938 402.062 97.5938C396.917 97.5938 392.583 96.0417 389.062 92.9375C385.417 89.7083 383.594 85.625 383.594 80.6875C383.594 75.6458 385.24 71.5 388.531 68.25C392.01 64.7917 396.635 63.0625 402.406 63.0625C407.031 63.0625 410.917 64.4688 414.062 67.2812C417.458 70.3021 419.156 74.2708 419.156 79.1875C419.156 79.8958 419.135 80.6458 419.094 81.4375H398.469V94.8438C399.885 95.1354 401.479 95.2812 403.25 95.2812C407 95.2812 410.198 94.0417 412.844 91.5625C413.385 91.0208 413.771 90.5938 414 90.2812C414.479 89.6979 414.969 89.4062 415.469 89.4062ZM407.125 65.9375C405.771 65.5417 404.24 65.3438 402.531 65.3438C400.823 65.3438 399.469 65.4583 398.469 65.6875V79.1562H407.125V65.9375ZM447.906 84.0312L450.688 84.1562C454.729 84.1562 458.062 82.8229 460.688 80.1562C463.354 77.4688 464.75 73.9896 464.875 69.7188C465.104 63.1354 461.938 58.6875 455.375 56.375C452.917 55.5 449.719 55.0625 445.781 55.0625H443.156V97H427.219V52.7812H439.188C445.646 52.7812 449.542 52.875 450.875 53.0625C452.208 53.25 453.594 53.4896 455.031 53.7812C456.49 54.0729 458.052 54.7083 459.719 55.6875C461.406 56.6667 462.833 57.8333 464 59.1875C466.354 61.9375 467.49 65.1667 467.406 68.875C467.281 73.6042 465.896 77.5417 463.25 80.6875C460.562 83.8542 456.854 85.8125 452.125 86.5625C450.75 86.75 449.667 86.8438 448.875 86.8438C447 86.8438 446.062 86.3333 446.062 85.3125C446.062 84.9375 446.229 84.6354 446.562 84.4062C446.896 84.1562 447.344 84.0312 447.906 84.0312ZM474.531 63.625H487.969V73.4375C489.406 69.875 490.948 67.2604 492.594 65.5938C494.26 63.9062 495.927 63.0625 497.594 63.0625C498.531 63.0625 499.271 63.3125 499.812 63.8125C500.375 64.2917 500.656 64.8333 500.656 65.4375C500.656 66.0417 500.573 66.5208 500.406 66.875C500.24 67.2292 500.021 67.5312 499.75 67.7812C499.188 68.3021 498.656 68.5625 498.156 68.5625C497.365 68.5625 496.781 68.4792 496.406 68.3125C495.76 68.0208 495.188 67.875 494.688 67.875C494.188 67.875 493.552 68.2812 492.781 69.0938C492.01 69.8854 491.271 70.9896 490.562 72.4062C488.833 75.8646 487.969 79.6146 487.969 83.6562V97H474.531V63.625ZM501.844 80.125C501.844 77.625 502.292 75.3542 503.188 73.3125C504.104 71.25 505.354 69.4583 506.938 67.9375C510.354 64.6875 514.646 63.0625 519.812 63.0625C525.083 63.0625 529.375 64.75 532.688 68.125C535.854 71.3125 537.438 75.3438 537.438 80.2188C537.438 85.1146 535.812 89.2083 532.562 92.5C529.208 95.8958 524.917 97.5938 519.688 97.5938C514.583 97.5938 510.354 95.9792 507 92.75C503.562 89.4167 501.844 85.2083 501.844 80.125ZM518.812 95.25C518.979 95.2708 519.146 95.2812 519.312 95.2812H519.75C523.958 95.2812 527.49 93.9792 530.344 91.375C533.385 88.5625 534.906 84.875 534.906 80.3125C534.906 75.8542 533.479 72.2396 530.625 69.4688C527.812 66.7188 524.177 65.3438 519.719 65.3438H519.25C519.104 65.3438 518.958 65.3542 518.812 65.375V95.25Z" fill="#F3EFEF"/>
<circle cx="70" cy="85" r="66" fill="#D9D9D9" fill-opacity="0.72"/>
<path d="M76.819 12.167C73.0775 17.7661 72.6171 24.31 74.9214 30.0051C81.5944 29.1608 87.8036 25.7221 91.5451 20.123C95.2855 14.5239 95.7459 7.97995 93.4427 2.28488C86.7686 3.12915 80.5594 6.5679 76.819 12.167Z" fill="#69A401"/>
<path d="M75.4241 51.9822C74.1628 51.9822 73.1392 50.9586 73.1392 49.6974V34.1579C73.1392 29.0112 70.4693 24.254 65.9978 21.4333C64.9296 20.7604 64.6109 19.3495 65.2838 18.2813C65.9578 17.2143 67.3687 16.8956 68.4346 17.5685C74.2417 21.2311 77.7078 27.4323 77.7078 34.1579V49.6974C77.709 50.9586 76.6853 51.9822 75.4241 51.9822Z" fill="#776220"/>
<path d="M107.143 71.4038C113.934 71.4038 119.439 66.0081 119.439 59.3522C119.439 52.6962 113.934 47.3005 107.143 47.3005C100.352 47.3005 94.8467 52.6962 94.8467 59.3522C94.8467 66.0081 100.352 71.4038 107.143 71.4038Z" fill="#90236B"/>
<path d="M42.6246 71.4038C49.4155 71.4038 54.9207 66.0081 54.9207 59.3522C54.9207 52.6962 49.4155 47.3005 42.6246 47.3005C35.8336 47.3005 30.3285 52.6962 30.3285 59.3522C30.3285 66.0081 35.8336 71.4038 42.6246 71.4038Z" fill="#5D1A47"/>
<path d="M63.128 61.749C69.919 61.749 75.4241 56.3533 75.4241 49.6974C75.4241 43.0414 69.919 37.6458 63.128 37.6458C56.3371 37.6458 50.8319 43.0414 50.8319 49.6974C50.8319 56.3533 56.3371 61.749 63.128 61.749Z" fill="#90236B"/>
<path d="M85.8123 61.749C92.6033 61.749 98.1084 56.3533 98.1084 49.6974C98.1084 43.0414 92.6033 37.6458 85.8123 37.6458C79.0214 37.6458 73.5162 43.0414 73.5162 49.6974C73.5162 56.3533 79.0214 61.749 85.8123 61.749Z" fill="#99499A"/>
<path d="M75.4241 78.2778C82.215 78.2778 87.7202 72.8821 87.7202 66.2262C87.7202 59.5703 82.215 54.1746 75.4241 54.1746C68.6331 54.1746 63.128 59.5703 63.128 66.2262C63.128 72.8821 68.6331 78.2778 75.4241 78.2778Z" fill="#90236B"/>
<path d="M98.1084 78.2778C104.899 78.2778 110.405 72.8821 110.405 66.2262C110.405 59.5703 104.899 54.1746 98.1084 54.1746C91.3175 54.1746 85.8123 59.5703 85.8123 66.2262C85.8123 72.8821 91.3175 78.2778 98.1084 78.2778Z" fill="#5D1A47"/>
<path d="M54.9207 79.4717C61.7116 79.4717 67.2168 74.076 67.2168 67.4201C67.2168 60.7642 61.7116 55.3685 54.9207 55.3685C48.1297 55.3685 42.6246 60.7642 42.6246 67.4201C42.6246 74.076 48.1297 79.4717 54.9207 79.4717Z" fill="#99499A"/>
<path d="M42.6246 94.0481C49.4155 94.0481 54.9207 88.6524 54.9207 81.9965C54.9207 75.3406 49.4155 69.9449 42.6246 69.9449C35.8336 69.9449 30.3285 75.3406 30.3285 81.9965C30.3285 88.6524 35.8336 94.0481 42.6246 94.0481Z" fill="#5D1A47"/>
<path d="M63.128 95.491C69.919 95.491 75.4241 90.0953 75.4241 83.4394C75.4241 76.7835 69.919 71.3878 63.128 71.3878C56.3371 71.3878 50.8319 76.7835 50.8319 83.4394C50.8319 90.0953 56.3371 95.491 63.128 95.491Z" fill="#90236B"/>
<path d="M85.8123 96.4255C93.25 96.4255 99.2794 90.6114 99.2794 83.4394C99.2794 76.2673 93.25 70.4532 85.8123 70.4532C78.3746 70.4532 72.3452 76.2673 72.3452 83.4394C72.3452 90.6114 78.3746 96.4255 85.8123 96.4255Z" fill="#99499A"/>
<path d="M104.7 94.0481C111.491 94.0481 116.996 88.6524 116.996 81.9965C116.996 75.3406 111.491 69.9449 104.7 69.9449C97.9093 69.9449 92.4042 75.3406 92.4042 81.9965C92.4042 88.6524 97.9093 94.0481 104.7 94.0481Z" fill="#90236B"/>
<path d="M53.7497 113.486C61.1874 113.486 67.2168 107.672 67.2168 100.499C67.2168 93.3274 61.1874 87.5133 53.7497 87.5133C46.312 87.5133 40.2826 93.3274 40.2826 100.499C40.2826 107.672 46.312 113.486 53.7497 113.486Z" fill="#99499A"/>
<path d="M75.4755 113.491C82.7933 113.491 88.7255 107.677 88.7255 100.505C88.7255 93.3331 82.7933 87.519 75.4755 87.519C68.1577 87.519 62.2255 93.3331 62.2255 100.505C62.2255 107.677 68.1577 113.491 75.4755 113.491Z" fill="#5D1A47"/>
<path d="M98.1084 113.486C105.426 113.486 111.358 107.672 111.358 100.499C111.358 93.3274 105.426 87.5133 98.1084 87.5133C90.7906 87.5133 84.8584 93.3274 84.8584 100.499C84.8584 107.672 90.7906 113.486 98.1084 113.486Z" fill="#90236B"/>
<path d="M66.0458 128.514C72.8367 128.514 78.3419 123.119 78.3419 116.463C78.3419 109.807 72.8367 104.411 66.0458 104.411C59.2548 104.411 53.7497 109.807 53.7497 116.463C53.7497 123.119 59.2548 128.514 66.0458 128.514Z" fill="#90236B"/>
<path d="M87.7191 129.384C94.51 129.384 100.015 123.988 100.015 117.332C100.015 110.676 94.51 105.281 87.7191 105.281C80.9281 105.281 75.423 110.676 75.423 117.332C75.423 123.988 80.9281 129.384 87.7191 129.384Z" fill="#99499A"/>
<path d="M78.3419 143.948C85.1328 143.948 90.638 138.552 90.638 131.896C90.638 125.24 85.1328 119.844 78.3419 119.844C71.5509 119.844 66.0458 125.24 66.0458 131.896C66.0458 138.552 71.5509 143.948 78.3419 143.948Z" fill="#5D1A47"/>
<path d="M37.6927 60.7196C39.1224 60.7196 40.2814 58.9693 40.2814 56.8102C40.2814 54.6511 39.1224 52.9008 37.6927 52.9008C36.2629 52.9008 35.1039 54.6511 35.1039 56.8102C35.1039 58.9693 36.2629 60.7196 37.6927 60.7196Z" fill="#FCCAFA"/>
<path d="M60.5381 51.2111C61.9678 51.2111 63.1268 49.4608 63.1268 47.3016C63.1268 45.1425 61.9678 43.3922 60.5381 43.3922C59.1083 43.3922 57.9493 45.1425 57.9493 47.3016C57.9493 49.4608 59.1083 51.2111 60.5381 51.2111Z" fill="#FCCAFA"/>
<path d="M50.8319 68.5373C52.2616 68.5373 53.4207 66.787 53.4207 64.6279C53.4207 62.4688 52.2616 60.7185 50.8319 60.7185C49.4021 60.7185 48.2431 62.4688 48.2431 64.6279C48.2431 66.787 49.4021 68.5373 50.8319 68.5373Z" fill="#FCCAFA"/>
<path d="M37.6927 83.38C39.1224 83.38 40.2814 81.6297 40.2814 79.4705C40.2814 77.3114 39.1224 75.5611 37.6927 75.5611C36.2629 75.5611 35.1039 77.3114 35.1039 79.4705C35.1039 81.6297 36.2629 83.38 37.6927 83.38Z" fill="#FCCAFA"/>
<path d="M48.242 101.866C49.6717 101.866 50.8307 100.115 50.8307 97.9564C50.8307 95.7972 49.6717 94.0469 48.242 94.0469C46.8122 94.0469 45.6532 95.7972 45.6532 97.9564C45.6532 100.115 46.8122 101.866 48.242 101.866Z" fill="#FCCAFA"/>
<path d="M63.128 117.253C64.5577 117.253 65.7167 115.503 65.7167 113.344C65.7167 111.185 64.5577 109.435 63.128 109.435C61.6982 109.435 60.5392 111.185 60.5392 113.344C60.5392 115.503 61.6982 117.253 63.128 117.253Z" fill="#FCCAFA"/>
<path d="M59.6367 83.38C61.0664 83.38 62.2255 81.6297 62.2255 79.4705C62.2255 77.3114 61.0664 75.5611 59.6367 75.5611C58.2069 75.5611 57.0479 77.3114 57.0479 79.4705C57.0479 81.6297 58.2069 83.38 59.6367 83.38Z" fill="#FCCAFA"/>
<path d="M73.5162 65.6573C74.9459 65.6573 76.105 63.9069 76.105 61.7478C76.105 59.5887 74.9459 57.8384 73.5162 57.8384C72.0865 57.8384 70.9274 59.5887 70.9274 61.7478C70.9274 63.9069 72.0865 65.6573 73.5162 65.6573Z" fill="#FCCAFA"/>
<path d="M85.8123 49.6973C87.242 49.6973 88.4011 47.947 88.4011 45.7879C88.4011 43.6288 87.242 41.8785 85.8123 41.8785C84.3825 41.8785 83.2235 43.6288 83.2235 45.7879C83.2235 47.947 84.3825 49.6973 85.8123 49.6973Z" fill="#FCCAFA"/>
<path d="M83.2235 83.38C84.6533 83.38 85.8123 81.6297 85.8123 79.4705C85.8123 77.3114 84.6533 75.5611 83.2235 75.5611C81.7938 75.5611 80.6348 77.3114 80.6348 79.4705C80.6348 81.6297 81.7938 83.38 83.2235 83.38Z" fill="#FCCAFA"/>
<path d="M73.5162 100.181C74.9459 100.181 76.105 98.4304 76.105 96.2713C76.105 94.1122 74.9459 92.3618 73.5162 92.3618C72.0865 92.3618 70.9274 94.1122 70.9274 96.2713C70.9274 98.4304 72.0865 100.181 73.5162 100.181Z" fill="#FCCAFA"/>
<path d="M84.8584 117.239C86.2881 117.239 87.4471 115.488 87.4471 113.329C87.4471 111.17 86.2881 109.42 84.8584 109.42C83.4286 109.42 82.2696 111.17 82.2696 113.329C82.2696 115.488 83.4286 117.239 84.8584 117.239Z" fill="#FCCAFA"/>
<path d="M75.4241 133.293C76.8538 133.293 78.0129 131.543 78.0129 129.384C78.0129 127.225 76.8538 125.474 75.4241 125.474C73.9944 125.474 72.8353 127.225 72.8353 129.384C72.8353 131.543 73.9944 133.293 75.4241 133.293Z" fill="#FCCAFA"/>
<path d="M94.8467 101.866C96.2764 101.866 97.4355 100.115 97.4355 97.9564C97.4355 95.7972 96.2764 94.0469 94.8467 94.0469C93.417 94.0469 92.2579 95.7972 92.2579 97.9564C92.2579 100.115 93.417 101.866 94.8467 101.866Z" fill="#FCCAFA"/>
<path d="M104.554 82.1861C105.984 82.1861 107.143 80.4358 107.143 78.2767C107.143 76.1176 105.984 74.3672 104.554 74.3672C103.124 74.3672 101.965 76.1176 101.965 78.2767C101.965 80.4358 103.124 82.1861 104.554 82.1861Z" fill="#FCCAFA"/>
<path d="M94.8467 68.5373C96.2764 68.5373 97.4355 66.787 97.4355 64.6279C97.4355 62.4688 96.2764 60.7185 94.8467 60.7185C93.417 60.7185 92.2579 62.4688 92.2579 64.6279C92.2579 66.787 93.417 68.5373 94.8467 68.5373Z" fill="#FCCAFA"/>
<path d="M110.405 58.084C111.834 58.084 112.993 56.3337 112.993 54.1746C112.993 52.0154 111.834 50.2651 110.405 50.2651C108.975 50.2651 107.816 52.0154 107.816 54.1746C107.816 56.3337 108.975 58.084 110.405 58.084Z" fill="#FCCAFA"/>
</g>
<defs>
<filter id="filter0_d_33_9" x="0" y="0" width="541.438" height="159" filterUnits="userSpaceOnUse" color-interpolation-filters="sRGB">
<feFlood flood-opacity="0" result="BackgroundImageFix"/>
<feColorMatrix in="SourceAlpha" type="matrix" values="0 0 0 0 0 0 0 0 0 0 0 0 0 0 0 0 0 0 127 0" result="hardAlpha"/>
<feOffset dy="4"/>
<feGaussianBlur stdDeviation="2"/>
<feComposite in2="hardAlpha" operator="out"/>
<feColorMatrix type="matrix" values="0 0 0 0 0 0 0 0 0 0 0 0 0 0 0 0 0 0 0.25 0"/>
<feBlend mode="normal" in2="BackgroundImageFix" result="effect1_dropShadow_33_9"/>
<feBlend mode="normal" in="SourceGraphic" in2="effect1_dropShadow_33_9" result="shape"/>
</filter>
</defs>
</svg>
