<svg width="19" height="19" viewBox="0 0 19 19" fill="none" xmlns="http://www.w3.org/2000/svg">
<path d="M4.75446 1H3.25267C2.65523 1 2.08225 1.23705 1.65979 1.65901C1.23733 2.08097 1 2.65326 1 3.25V4.75M13.7652 1H15.2669C15.8644 1 16.4374 1.23705 16.8598 1.65901C17.2823 2.08097 17.5196 2.65326 17.5196 3.25V4.75M17.5196 13.75V15.25C17.5196 15.8467 17.2823 16.419 16.8598 16.841C16.4374 17.2629 15.8644 17.5 15.2669 17.5H13.7652M4.75446 17.5H3.25267C2.65523 17.5 2.08225 17.2629 1.65979 16.841C1.23733 16.419 1 15.8467 1 15.25V13.75M12.2634 9.25C12.2634 10.0456 11.9469 10.8087 11.3836 11.3713C10.8204 11.9339 10.0564 12.25 9.2598 12.25C8.46321 12.25 7.69924 11.9339 7.13596 11.3713C6.57268 10.8087 6.25624 10.0456 6.25624 9.25C6.25624 8.45435 6.57268 7.69129 7.13596 7.12868C7.69924 6.56607 8.46321 6.25 9.2598 6.25C10.0564 6.25 10.8204 6.56607 11.3836 7.12868C11.9469 7.69129 12.2634 8.45435 12.2634 9.25Z" stroke="black" stroke-opacity="0.32" stroke-width="1.5" stroke-linecap="round" stroke-linejoin="round"/>
</svg>
