<svg width="452" height="240" viewBox="0 0 452 240" fill="none" xmlns="http://www.w3.org/2000/svg">
<g filter="url(#filter0_d_115_125)">
<path d="M25.36 49.64C21.264 49.64 17.488 48.9573 14.032 47.592C10.6187 46.184 7.952 44.264 6.032 41.832C5.69067 41.4053 5.52 40.9573 5.52 40.488C5.52 39.8907 5.84 39.3147 6.48 38.76C6.82133 38.504 7.184 38.376 7.568 38.376C8.336 38.376 9.01867 38.7387 9.616 39.464C11.3653 41.384 13.5627 42.8773 16.208 43.944C18.896 44.968 21.9467 45.48 25.36 45.48C29.1147 45.48 32.016 44.7973 34.064 43.432C36.112 42.024 37.136 40.04 37.136 37.48C37.136 35.2613 36.1333 33.4693 34.128 32.104C32.1653 30.7387 28.816 29.5227 24.08 28.456C17.8933 27.0907 13.4347 25.384 10.704 23.336C8.016 21.2453 6.672 18.4933 6.672 15.08C6.672 11.5387 8.16533 8.744 11.152 6.696C14.1813 4.60533 18.256 3.56 23.376 3.56C27.2587 3.56 30.7573 4.24266 33.872 5.608C37.0293 6.97333 39.2693 8.808 40.592 11.112C40.848 11.5387 40.976 11.944 40.976 12.328C40.976 13.0107 40.6133 13.608 39.888 14.12C39.5893 14.2907 39.248 14.376 38.864 14.376C37.9253 14.376 37.2 14.0133 36.688 13.288C35.4507 11.496 33.7013 10.1307 31.44 9.192C29.1787 8.21066 26.4907 7.72 23.376 7.72C15.4827 7.72 11.536 10.1733 11.536 15.08C11.536 16.5733 11.9413 17.832 12.752 18.856C13.5627 19.8373 14.864 20.7333 16.656 21.544C18.4907 22.312 21.0293 23.08 24.272 23.848C30.5867 25.3413 35.1307 27.1547 37.904 29.288C40.6773 31.3787 42.064 34.1093 42.064 37.48C42.064 41.2347 40.5493 44.2 37.52 46.376C34.5333 48.552 30.48 49.64 25.36 49.64ZM65.7225 49.64C60.1758 49.64 55.8878 48.2107 52.8585 45.352C49.8292 42.4933 48.3145 38.44 48.3145 33.192C48.3145 28.1573 49.8505 24.2107 52.9225 21.352C55.9945 18.4507 60.1972 17 65.5305 17C68.8158 17 71.7385 17.5333 74.2985 18.6C76.8585 19.624 78.8425 21.096 80.2505 23.016C81.7012 24.8933 82.4265 27.048 82.4265 29.48C82.4265 31.272 81.9145 32.6587 80.8905 33.64C79.9092 34.6213 78.5438 35.112 76.7945 35.112H53.1145C53.1145 38.3973 54.2238 40.9787 56.4425 42.856C58.6612 44.6907 61.7545 45.608 65.7225 45.608C68.1545 45.608 70.2452 45.352 71.9945 44.84C73.7438 44.2853 75.3865 43.4107 76.9225 42.216C77.7332 41.5333 78.3945 41.192 78.9065 41.192C79.2905 41.192 79.6532 41.3627 79.9945 41.704C80.5918 42.216 80.8905 42.7493 80.8905 43.304C80.8905 43.7307 80.6345 44.2 80.1225 44.712C78.3732 46.376 76.3252 47.6133 73.9785 48.424C71.6318 49.2347 68.8798 49.64 65.7225 49.64ZM75.3865 31.336C76.1545 31.336 76.7305 31.1867 77.1145 30.888C77.4985 30.5467 77.6905 29.9493 77.6905 29.096C77.6905 27.56 77.1785 26.1733 76.1545 24.936C75.1305 23.6987 73.6798 22.7387 71.8025 22.056C69.9678 21.3733 67.8772 21.032 65.5305 21.032C61.7332 21.032 58.7252 21.9707 56.5065 23.848C54.3305 25.6827 53.2425 28.1787 53.2425 31.336H75.3865ZM93.3155 49.64C92.5902 49.64 92.0142 49.4267 91.5875 49C91.2035 48.5307 91.0115 47.8907 91.0115 47.08V2.984C91.0115 2.17333 91.2035 1.55466 91.5875 1.128C92.0142 0.658663 92.5902 0.423996 93.3155 0.423996C94.0408 0.423996 94.6168 0.658663 95.0435 1.128C95.4702 1.55466 95.6835 2.17333 95.6835 2.984V47.08C95.6835 47.848 95.4702 48.4667 95.0435 48.936C94.6595 49.4053 94.0835 49.64 93.3155 49.64ZM121.66 49.64C116.113 49.64 111.825 48.2107 108.796 45.352C105.767 42.4933 104.252 38.44 104.252 33.192C104.252 28.1573 105.788 24.2107 108.86 21.352C111.932 18.4507 116.135 17 121.468 17C124.753 17 127.676 17.5333 130.236 18.6C132.796 19.624 134.78 21.096 136.188 23.016C137.639 24.8933 138.364 27.048 138.364 29.48C138.364 31.272 137.852 32.6587 136.828 33.64C135.847 34.6213 134.481 35.112 132.732 35.112H109.052C109.052 38.3973 110.161 40.9787 112.38 42.856C114.599 44.6907 117.692 45.608 121.66 45.608C124.092 45.608 126.183 45.352 127.932 44.84C129.681 44.2853 131.324 43.4107 132.86 42.216C133.671 41.5333 134.332 41.192 134.844 41.192C135.228 41.192 135.591 41.3627 135.932 41.704C136.529 42.216 136.828 42.7493 136.828 43.304C136.828 43.7307 136.572 44.2 136.06 44.712C134.311 46.376 132.263 47.6133 129.916 48.424C127.569 49.2347 124.817 49.64 121.66 49.64ZM131.324 31.336C132.092 31.336 132.668 31.1867 133.052 30.888C133.436 30.5467 133.628 29.9493 133.628 29.096C133.628 27.56 133.116 26.1733 132.092 24.936C131.068 23.6987 129.617 22.7387 127.74 22.056C125.905 21.3733 123.815 21.032 121.468 21.032C117.671 21.032 114.663 21.9707 112.444 23.848C110.268 25.6827 109.18 28.1787 109.18 31.336H131.324ZM161.157 49.64C157.744 49.64 154.736 48.9787 152.133 47.656C149.53 46.2907 147.525 44.3707 146.117 41.896C144.709 39.4213 144.005 36.5413 144.005 33.256C144.005 30.0133 144.709 27.176 146.117 24.744C147.525 22.2693 149.53 20.3707 152.133 19.048C154.736 17.6827 157.744 17 161.157 17C164.357 17 167.13 17.448 169.477 18.344C171.824 19.24 173.68 20.5627 175.045 22.312C175.386 22.7813 175.557 23.2293 175.557 23.656C175.557 24.296 175.237 24.872 174.597 25.384C174.298 25.64 173.914 25.768 173.445 25.768C172.72 25.768 172.037 25.448 171.397 24.808C169.136 22.2907 165.722 21.032 161.157 21.032C157.189 21.032 154.117 22.0987 151.941 24.232C149.808 26.3227 148.741 29.3307 148.741 33.256C148.741 37.1387 149.829 40.168 152.005 42.344C154.181 44.52 157.232 45.608 161.157 45.608C163.333 45.608 165.338 45.288 167.173 44.648C169.008 43.9653 170.522 43.0053 171.717 41.768C172.442 41.0427 173.125 40.68 173.765 40.68C174.149 40.68 174.576 40.8507 175.045 41.192C175.642 41.704 175.941 42.2587 175.941 42.856C175.941 43.4107 175.706 43.88 175.237 44.264C173.146 46.1413 170.97 47.5067 168.709 48.36C166.448 49.2133 163.93 49.64 161.157 49.64ZM202.981 42.664C203.45 43.048 203.685 43.496 203.685 44.008C203.685 44.4347 203.493 44.9467 203.109 45.544C202.213 46.7813 200.976 47.784 199.397 48.552C197.818 49.2773 196.197 49.64 194.533 49.64C191.717 49.64 189.498 48.808 187.877 47.144C186.256 45.48 185.445 43.1973 185.445 40.296V21.544H181.989C180.282 21.544 179.429 20.8827 179.429 19.56C179.429 18.9627 179.642 18.4933 180.069 18.152C180.538 17.8107 181.178 17.64 181.989 17.64H185.445V6.696C185.445 5.88533 185.637 5.26667 186.021 4.84C186.448 4.37066 187.045 4.136 187.813 4.136C188.538 4.136 189.093 4.37066 189.477 4.84C189.904 5.26667 190.117 5.88533 190.117 6.696V17.64H198.821C199.589 17.64 200.186 17.8107 200.613 18.152C201.082 18.4507 201.317 18.92 201.317 19.56C201.317 20.8827 200.485 21.544 198.821 21.544H190.117V40.68C190.117 43.9653 191.653 45.608 194.725 45.608C195.706 45.608 196.602 45.416 197.413 45.032C198.224 44.648 199.034 44.0293 199.845 43.176C200.485 42.4933 201.104 42.152 201.701 42.152C202.085 42.152 202.512 42.3227 202.981 42.664ZM11.472 132.64C10.7467 132.64 10.1707 132.427 9.744 132C9.31733 131.531 9.104 130.891 9.104 130.08V89.12C9.104 88.3093 9.31733 87.6907 9.744 87.264C10.1707 86.7947 10.7467 86.56 11.472 86.56C12.24 86.56 12.8373 86.7947 13.264 87.264C13.6907 87.7333 13.904 88.352 13.904 89.12V130.08C13.904 130.848 13.6907 131.467 13.264 131.936C12.8373 132.405 12.24 132.64 11.472 132.64ZM27.848 132.64C27.1227 132.64 26.5467 132.427 26.12 132C25.736 131.531 25.544 130.891 25.544 130.08V102.56C25.544 101.749 25.736 101.131 26.12 100.704C26.504 100.235 27.08 100 27.848 100C28.5733 100 29.128 100.235 29.512 100.704C29.9387 101.131 30.152 101.749 30.152 102.56V106.336C31.7307 104.245 33.6293 102.667 35.848 101.6C38.1093 100.533 40.584 100 43.272 100C47.3253 100 50.44 101.131 52.616 103.392C54.8347 105.653 55.944 108.896 55.944 113.12V130.08C55.944 130.891 55.7307 131.531 55.304 132C54.8773 132.427 54.3013 132.64 53.576 132.64C52.808 132.64 52.232 132.427 51.848 132C51.464 131.531 51.272 130.891 51.272 130.08V113.12C51.272 107.061 48.4133 104.032 42.696 104.032C38.9413 104.032 35.912 105.141 33.608 107.36C31.3467 109.579 30.216 112.523 30.216 116.192V130.08C30.216 130.848 30.0027 131.467 29.576 131.936C29.192 132.405 28.616 132.64 27.848 132.64ZM81.181 148.064C78.109 148.064 75.3357 147.616 72.861 146.72C70.3863 145.824 68.381 144.523 66.845 142.816C66.5037 142.475 66.333 142.048 66.333 141.536C66.333 140.896 66.6743 140.341 67.357 139.872C67.7837 139.573 68.189 139.424 68.573 139.424C69.213 139.424 69.853 139.765 70.493 140.448C71.517 141.557 72.8823 142.453 74.589 143.136C76.2957 143.819 78.3437 144.16 80.733 144.16C84.9143 144.16 88.1143 143.157 90.333 141.152C92.5517 139.147 93.661 136.245 93.661 132.448V126.432C92.2103 128.352 90.3117 129.931 87.965 131.168C85.6183 132.363 82.8877 132.96 79.773 132.96C74.3543 132.96 70.173 131.509 67.229 128.608C64.285 125.707 62.813 121.824 62.813 116.96C62.813 113.675 63.453 110.773 64.733 108.256C66.0557 105.696 68.0183 103.691 70.621 102.24C73.2237 100.747 76.4237 100 80.221 100C83.037 100 85.5757 100.576 87.837 101.728C90.0983 102.88 92.0397 104.523 93.661 106.656V102.432C93.661 101.749 93.8743 101.173 94.301 100.704C94.7703 100.235 95.3463 100 96.029 100C96.7117 100 97.2663 100.235 97.693 100.704C98.1197 101.131 98.333 101.707 98.333 102.432V132.448C98.333 135.648 97.6077 138.421 96.157 140.768C94.749 143.115 92.7437 144.907 90.141 146.144C87.5383 147.424 84.5517 148.064 81.181 148.064ZM80.221 128.8C82.525 128.8 84.6797 128.352 86.685 127.456C88.733 126.56 90.397 125.195 91.677 123.36C92.957 121.483 93.597 119.2 93.597 116.512C93.597 114.123 93.085 111.989 92.061 110.112C91.037 108.235 89.5437 106.763 87.581 105.696C85.6183 104.587 83.2717 104.032 80.541 104.032C76.4023 104.032 73.2023 105.163 70.941 107.424C68.6797 109.643 67.549 112.821 67.549 116.96C67.549 120.629 68.6157 123.531 70.749 125.664C72.925 127.755 76.0823 128.8 80.221 128.8ZM109.348 132.64C108.623 132.64 108.047 132.427 107.62 132C107.236 131.531 107.044 130.891 107.044 130.08V102.56C107.044 101.749 107.236 101.131 107.62 100.704C108.004 100.235 108.58 100 109.348 100C110.073 100 110.628 100.235 111.012 100.704C111.439 101.131 111.652 101.749 111.652 102.56V106.4C114.553 102.56 118.564 100.64 123.684 100.64H125.284C126.095 100.64 126.735 100.832 127.204 101.216C127.673 101.557 127.908 102.048 127.908 102.688C127.908 103.328 127.673 103.819 127.204 104.16C126.735 104.501 126.095 104.672 125.284 104.672H123.492C119.865 104.672 116.985 105.717 114.852 107.808C112.761 109.856 111.716 112.651 111.716 116.192V130.08C111.716 130.848 111.503 131.467 111.076 131.936C110.692 132.405 110.116 132.64 109.348 132.64ZM147.41 132.64C141.863 132.64 137.575 131.211 134.546 128.352C131.517 125.493 130.002 121.44 130.002 116.192C130.002 111.157 131.538 107.211 134.61 104.352C137.682 101.451 141.885 100 147.218 100C150.503 100 153.426 100.533 155.986 101.6C158.546 102.624 160.53 104.096 161.938 106.016C163.389 107.893 164.114 110.048 164.114 112.48C164.114 114.272 163.602 115.659 162.578 116.64C161.597 117.621 160.231 118.112 158.482 118.112H134.802C134.802 121.397 135.911 123.979 138.13 125.856C140.349 127.691 143.442 128.608 147.41 128.608C149.842 128.608 151.933 128.352 153.682 127.84C155.431 127.285 157.074 126.411 158.61 125.216C159.421 124.533 160.082 124.192 160.594 124.192C160.978 124.192 161.341 124.363 161.682 124.704C162.279 125.216 162.578 125.749 162.578 126.304C162.578 126.731 162.322 127.2 161.81 127.712C160.061 129.376 158.013 130.613 155.666 131.424C153.319 132.235 150.567 132.64 147.41 132.64ZM157.074 114.336C157.842 114.336 158.418 114.187 158.802 113.888C159.186 113.547 159.378 112.949 159.378 112.096C159.378 110.56 158.866 109.173 157.842 107.936C156.818 106.699 155.367 105.739 153.49 105.056C151.655 104.373 149.565 104.032 147.218 104.032C143.421 104.032 140.413 104.971 138.194 106.848C136.018 108.683 134.93 111.179 134.93 114.336H157.074ZM185.59 132.64C180.299 132.64 176.118 131.211 173.046 128.352C170.017 125.451 168.502 121.504 168.502 116.512C168.502 113.355 169.163 110.539 170.486 108.064C171.851 105.547 173.814 103.584 176.374 102.176C178.977 100.725 182.091 100 185.718 100C188.79 100 191.393 100.576 193.526 101.728C195.702 102.88 197.622 104.48 199.286 106.528L199.35 85.984C199.35 85.1733 199.542 84.5547 199.926 84.128C200.353 83.6587 200.95 83.424 201.718 83.424C202.443 83.424 202.998 83.6587 203.382 84.128C203.809 84.5547 204.022 85.1733 204.022 85.984V130.08C204.022 130.891 203.809 131.531 203.382 132C202.998 132.427 202.443 132.64 201.718 132.64C200.993 132.64 200.417 132.427 199.99 132C199.563 131.531 199.35 130.891 199.35 130.08V125.984C197.857 128.16 195.937 129.824 193.59 130.976C191.286 132.085 188.619 132.64 185.59 132.64ZM185.974 128.608C190.113 128.608 193.377 127.52 195.766 125.344C198.155 123.125 199.35 120.117 199.35 116.32C199.35 113.803 198.731 111.627 197.494 109.792C196.299 107.915 194.678 106.485 192.63 105.504C190.625 104.523 188.427 104.032 186.038 104.032C182.027 104.032 178.891 105.184 176.63 107.488C174.369 109.749 173.238 112.757 173.238 116.512C173.238 120.523 174.347 123.552 176.566 125.6C178.785 127.605 181.921 128.608 185.974 128.608ZM216.374 93.216C215.435 93.216 214.624 92.9173 213.942 92.32C213.302 91.68 212.982 90.912 212.982 90.016C212.982 89.12 213.302 88.352 213.942 87.712C214.624 87.072 215.435 86.752 216.374 86.752C217.312 86.752 218.123 87.0933 218.806 87.776C219.531 88.416 219.894 89.1627 219.894 90.016C219.894 90.8693 219.531 91.616 218.806 92.256C218.123 92.896 217.312 93.216 216.374 93.216ZM216.374 132.64C215.648 132.64 215.072 132.427 214.646 132C214.262 131.531 214.07 130.891 214.07 130.08V102.56C214.07 101.749 214.262 101.131 214.646 100.704C215.072 100.235 215.648 100 216.374 100C217.142 100 217.718 100.235 218.102 100.704C218.528 101.131 218.742 101.749 218.742 102.56V130.08C218.742 130.891 218.528 131.531 218.102 132C217.718 132.427 217.142 132.64 216.374 132.64ZM244.598 132.64C239.051 132.64 234.763 131.211 231.734 128.352C228.704 125.493 227.19 121.44 227.19 116.192C227.19 111.157 228.726 107.211 231.798 104.352C234.87 101.451 239.072 100 244.406 100C247.691 100 250.614 100.533 253.174 101.6C255.734 102.624 257.718 104.096 259.126 106.016C260.576 107.893 261.302 110.048 261.302 112.48C261.302 114.272 260.79 115.659 259.766 116.64C258.784 117.621 257.419 118.112 255.67 118.112H231.99C231.99 121.397 233.099 123.979 235.318 125.856C237.536 127.691 240.63 128.608 244.598 128.608C247.03 128.608 249.12 128.352 250.87 127.84C252.619 127.285 254.262 126.411 255.798 125.216C256.608 124.533 257.27 124.192 257.782 124.192C258.166 124.192 258.528 124.363 258.87 124.704C259.467 125.216 259.766 125.749 259.766 126.304C259.766 126.731 259.51 127.2 258.998 127.712C257.248 129.376 255.2 130.613 252.854 131.424C250.507 132.235 247.755 132.64 244.598 132.64ZM254.262 114.336C255.03 114.336 255.606 114.187 255.99 113.888C256.374 113.547 256.566 112.949 256.566 112.096C256.566 110.56 256.054 109.173 255.03 107.936C254.006 106.699 252.555 105.739 250.678 105.056C248.843 104.373 246.752 104.032 244.406 104.032C240.608 104.032 237.6 104.971 235.382 106.848C233.206 108.683 232.118 111.179 232.118 114.336H254.262ZM270.911 132.64C270.185 132.64 269.609 132.427 269.183 132C268.799 131.531 268.607 130.891 268.607 130.08V102.56C268.607 101.749 268.799 101.131 269.183 100.704C269.567 100.235 270.143 100 270.911 100C271.636 100 272.191 100.235 272.575 100.704C273.001 101.131 273.215 101.749 273.215 102.56V106.336C274.793 104.245 276.692 102.667 278.911 101.6C281.172 100.533 283.647 100 286.335 100C290.388 100 293.503 101.131 295.679 103.392C297.897 105.653 299.007 108.896 299.007 113.12V130.08C299.007 130.891 298.793 131.531 298.367 132C297.94 132.427 297.364 132.64 296.639 132.64C295.871 132.64 295.295 132.427 294.911 132C294.527 131.531 294.335 130.891 294.335 130.08V113.12C294.335 107.061 291.476 104.032 285.759 104.032C282.004 104.032 278.975 105.141 276.671 107.36C274.409 109.579 273.279 112.523 273.279 116.192V130.08C273.279 130.848 273.065 131.467 272.639 131.936C272.255 132.405 271.679 132.64 270.911 132.64ZM329.044 125.664C329.513 126.048 329.748 126.496 329.748 127.008C329.748 127.435 329.556 127.947 329.172 128.544C328.276 129.781 327.038 130.784 325.46 131.552C323.881 132.277 322.26 132.64 320.596 132.64C317.78 132.64 315.561 131.808 313.94 130.144C312.318 128.48 311.508 126.197 311.508 123.296V104.544H308.052C306.345 104.544 305.492 103.883 305.492 102.56C305.492 101.963 305.705 101.493 306.132 101.152C306.601 100.811 307.241 100.64 308.052 100.64H311.508V89.696C311.508 88.8853 311.7 88.2667 312.084 87.84C312.51 87.3707 313.108 87.136 313.876 87.136C314.601 87.136 315.156 87.3707 315.54 87.84C315.966 88.2667 316.18 88.8853 316.18 89.696V100.64H324.884C325.652 100.64 326.249 100.811 326.676 101.152C327.145 101.451 327.38 101.92 327.38 102.56C327.38 103.883 326.548 104.544 324.884 104.544H316.18V123.68C316.18 126.965 317.716 128.608 320.788 128.608C321.769 128.608 322.665 128.416 323.476 128.032C324.286 127.648 325.097 127.029 325.908 126.176C326.548 125.493 327.166 125.152 327.764 125.152C328.148 125.152 328.574 125.323 329.044 125.664ZM350.237 132.64C347.25 132.64 344.434 132.085 341.789 130.976C339.144 129.824 337.053 128.245 335.517 126.24C335.218 125.813 335.069 125.387 335.069 124.96C335.069 124.533 335.176 124.171 335.389 123.872C335.645 123.531 335.965 123.275 336.349 123.104C336.69 122.976 336.968 122.912 337.181 122.912C337.565 122.912 337.885 123.019 338.141 123.232C338.44 123.403 338.781 123.701 339.165 124.128C341.938 127.072 345.629 128.544 350.237 128.544C352.456 128.544 354.248 128.16 355.613 127.392C356.978 126.624 357.661 125.557 357.661 124.192C357.661 123.211 357.384 122.421 356.829 121.824C356.317 121.184 355.421 120.608 354.141 120.096C352.904 119.541 350.856 118.773 347.997 117.792C345.224 116.853 343.048 115.957 341.469 115.104C339.89 114.251 338.717 113.291 337.949 112.224C337.181 111.115 336.797 109.771 336.797 108.192C336.797 105.717 337.864 103.733 339.997 102.24C342.173 100.747 345.053 100 348.637 100C351.282 100 353.736 100.469 355.997 101.408C358.258 102.304 359.965 103.52 361.117 105.056C361.458 105.525 361.629 105.973 361.629 106.4C361.629 107.04 361.288 107.552 360.605 107.936C360.178 108.192 359.752 108.32 359.325 108.32C358.6 108.32 357.917 108 357.277 107.36C356.168 106.251 354.952 105.44 353.629 104.928C352.306 104.373 350.621 104.096 348.573 104.096C346.312 104.096 344.584 104.459 343.389 105.184C342.194 105.909 341.597 106.933 341.597 108.256C341.597 109.237 341.832 110.027 342.301 110.624C342.813 111.179 343.602 111.691 344.669 112.16C345.778 112.587 347.698 113.248 350.429 114.144C353.501 115.168 355.869 116.149 357.533 117.088C359.24 117.984 360.456 118.987 361.181 120.096C361.949 121.205 362.333 122.571 362.333 124.192C362.333 126.752 361.202 128.8 358.941 130.336C356.722 131.872 353.821 132.64 350.237 132.64ZM408.169 125.664C408.638 126.048 408.873 126.496 408.873 127.008C408.873 127.435 408.681 127.947 408.297 128.544C407.401 129.781 406.163 130.784 404.585 131.552C403.006 132.277 401.385 132.64 399.721 132.64C396.905 132.64 394.686 131.808 393.065 130.144C391.443 128.48 390.633 126.197 390.633 123.296V104.544H387.177C385.47 104.544 384.617 103.883 384.617 102.56C384.617 101.963 384.83 101.493 385.257 101.152C385.726 100.811 386.366 100.64 387.177 100.64H390.633V89.696C390.633 88.8853 390.825 88.2667 391.209 87.84C391.635 87.3707 392.233 87.136 393.001 87.136C393.726 87.136 394.281 87.3707 394.665 87.84C395.091 88.2667 395.305 88.8853 395.305 89.696V100.64H404.009C404.777 100.64 405.374 100.811 405.801 101.152C406.27 101.451 406.505 101.92 406.505 102.56C406.505 103.883 405.673 104.544 404.009 104.544H395.305V123.68C395.305 126.965 396.841 128.608 399.913 128.608C400.894 128.608 401.79 128.416 402.601 128.032C403.411 127.648 404.222 127.029 405.033 126.176C405.673 125.493 406.291 125.152 406.889 125.152C407.273 125.152 407.699 125.323 408.169 125.664ZM430.041 132.64C426.329 132.64 423.15 131.893 420.505 130.4C417.86 128.907 415.854 126.923 414.489 124.448C413.166 121.931 412.505 119.221 412.505 116.32C412.505 113.419 413.166 110.731 414.489 108.256C415.854 105.739 417.86 103.733 420.505 102.24C423.15 100.747 426.329 100 430.041 100C433.753 100 436.91 100.747 439.513 102.24C442.158 103.733 444.142 105.739 445.465 108.256C446.83 110.731 447.513 113.419 447.513 116.32C447.513 119.221 446.83 121.931 445.465 124.448C444.142 126.923 442.158 128.907 439.513 130.4C436.91 131.893 433.753 132.64 430.041 132.64ZM430.041 128.608C433.881 128.608 436.953 127.52 439.257 125.344C441.604 123.168 442.777 120.16 442.777 116.32C442.777 112.48 441.604 109.472 439.257 107.296C436.953 105.12 433.881 104.032 430.041 104.032C426.158 104.032 423.044 105.12 420.697 107.296C418.393 109.472 417.241 112.48 417.241 116.32C417.241 120.16 418.393 123.168 420.697 125.344C423.044 127.52 426.158 128.608 430.041 128.608ZM23.056 231.064C19.984 231.064 17.2107 230.616 14.736 229.72C12.2613 228.824 10.256 227.523 8.72 225.816C8.37867 225.475 8.208 225.048 8.208 224.536C8.208 223.896 8.54933 223.341 9.232 222.872C9.65867 222.573 10.064 222.424 10.448 222.424C11.088 222.424 11.728 222.765 12.368 223.448C13.392 224.557 14.7573 225.453 16.464 226.136C18.1707 226.819 20.2187 227.16 22.608 227.16C26.7893 227.16 29.9893 226.157 32.208 224.152C34.4267 222.147 35.536 219.245 35.536 215.448V209.432C34.0853 211.352 32.1867 212.931 29.84 214.168C27.4933 215.363 24.7627 215.96 21.648 215.96C16.2293 215.96 12.048 214.509 9.104 211.608C6.16 208.707 4.688 204.824 4.688 199.96C4.688 196.675 5.328 193.773 6.608 191.256C7.93067 188.696 9.89333 186.691 12.496 185.24C15.0987 183.747 18.2987 183 22.096 183C24.912 183 27.4507 183.576 29.712 184.728C31.9733 185.88 33.9147 187.523 35.536 189.656V185.432C35.536 184.749 35.7493 184.173 36.176 183.704C36.6453 183.235 37.2213 183 37.904 183C38.5867 183 39.1413 183.235 39.568 183.704C39.9947 184.131 40.208 184.707 40.208 185.432V215.448C40.208 218.648 39.4827 221.421 38.032 223.768C36.624 226.115 34.6187 227.907 32.016 229.144C29.4133 230.424 26.4267 231.064 23.056 231.064ZM22.096 211.8C24.4 211.8 26.5547 211.352 28.56 210.456C30.608 209.56 32.272 208.195 33.552 206.36C34.832 204.483 35.472 202.2 35.472 199.512C35.472 197.123 34.96 194.989 33.936 193.112C32.912 191.235 31.4187 189.763 29.456 188.696C27.4933 187.587 25.1467 187.032 22.416 187.032C18.2773 187.032 15.0773 188.163 12.816 190.424C10.5547 192.643 9.424 195.821 9.424 199.96C9.424 203.629 10.4907 206.531 12.624 208.664C14.8 210.755 17.9573 211.8 22.096 211.8ZM64.535 215.64C58.9883 215.64 54.7003 214.211 51.671 211.352C48.6417 208.493 47.127 204.44 47.127 199.192C47.127 194.157 48.663 190.211 51.735 187.352C54.807 184.451 59.0097 183 64.343 183C67.6283 183 70.551 183.533 73.111 184.6C75.671 185.624 77.655 187.096 79.063 189.016C80.5137 190.893 81.239 193.048 81.239 195.48C81.239 197.272 80.727 198.659 79.703 199.64C78.7217 200.621 77.3563 201.112 75.607 201.112H51.927C51.927 204.397 53.0363 206.979 55.255 208.856C57.4737 210.691 60.567 211.608 64.535 211.608C66.967 211.608 69.0577 211.352 70.807 210.84C72.5563 210.285 74.199 209.411 75.735 208.216C76.5457 207.533 77.207 207.192 77.719 207.192C78.103 207.192 78.4657 207.363 78.807 207.704C79.4043 208.216 79.703 208.749 79.703 209.304C79.703 209.731 79.447 210.2 78.935 210.712C77.1857 212.376 75.1377 213.613 72.791 214.424C70.4443 215.235 67.6923 215.64 64.535 215.64ZM74.199 197.336C74.967 197.336 75.543 197.187 75.927 196.888C76.311 196.547 76.503 195.949 76.503 195.096C76.503 193.56 75.991 192.173 74.967 190.936C73.943 189.699 72.4923 188.739 70.615 188.056C68.7803 187.373 66.6897 187.032 64.343 187.032C60.5457 187.032 57.5377 187.971 55.319 189.848C53.143 191.683 52.055 194.179 52.055 197.336H74.199ZM108.231 208.664C108.7 209.048 108.935 209.496 108.935 210.008C108.935 210.435 108.743 210.947 108.359 211.544C107.463 212.781 106.226 213.784 104.647 214.552C103.068 215.277 101.447 215.64 99.783 215.64C96.967 215.64 94.7483 214.808 93.127 213.144C91.5057 211.48 90.695 209.197 90.695 206.296V187.544H87.239C85.5323 187.544 84.679 186.883 84.679 185.56C84.679 184.963 84.8923 184.493 85.319 184.152C85.7883 183.811 86.4283 183.64 87.239 183.64H90.695V172.696C90.695 171.885 90.887 171.267 91.271 170.84C91.6977 170.371 92.295 170.136 93.063 170.136C93.7883 170.136 94.343 170.371 94.727 170.84C95.1537 171.267 95.367 171.885 95.367 172.696V183.64H104.071C104.839 183.64 105.436 183.811 105.863 184.152C106.332 184.451 106.567 184.92 106.567 185.56C106.567 186.883 105.735 187.544 104.071 187.544H95.367V206.68C95.367 209.965 96.903 211.608 99.975 211.608C100.956 211.608 101.852 211.416 102.663 211.032C103.474 210.648 104.284 210.029 105.095 209.176C105.735 208.493 106.354 208.152 106.951 208.152C107.335 208.152 107.762 208.323 108.231 208.664ZM146.55 215.64C143.563 215.64 140.747 215.085 138.102 213.976C135.456 212.824 133.366 211.245 131.83 209.24C131.531 208.813 131.382 208.387 131.382 207.96C131.382 207.533 131.488 207.171 131.702 206.872C131.958 206.531 132.278 206.275 132.661 206.104C133.003 205.976 133.28 205.912 133.494 205.912C133.878 205.912 134.198 206.019 134.454 206.232C134.752 206.403 135.094 206.701 135.478 207.128C138.251 210.072 141.942 211.544 146.55 211.544C148.768 211.544 150.56 211.16 151.926 210.392C153.291 209.624 153.974 208.557 153.974 207.192C153.974 206.211 153.696 205.421 153.142 204.824C152.63 204.184 151.734 203.608 150.454 203.096C149.216 202.541 147.168 201.773 144.31 200.792C141.536 199.853 139.36 198.957 137.782 198.104C136.203 197.251 135.03 196.291 134.262 195.224C133.494 194.115 133.11 192.771 133.11 191.192C133.11 188.717 134.176 186.733 136.31 185.24C138.486 183.747 141.366 183 144.95 183C147.595 183 150.048 183.469 152.31 184.408C154.571 185.304 156.278 186.52 157.43 188.056C157.771 188.525 157.942 188.973 157.942 189.4C157.942 190.04 157.6 190.552 156.918 190.936C156.491 191.192 156.064 191.32 155.638 191.32C154.912 191.32 154.23 191 153.59 190.36C152.48 189.251 151.264 188.44 149.942 187.928C148.619 187.373 146.934 187.096 144.885 187.096C142.624 187.096 140.896 187.459 139.702 188.184C138.507 188.909 137.91 189.933 137.91 191.256C137.91 192.237 138.144 193.027 138.614 193.624C139.126 194.179 139.915 194.691 140.982 195.16C142.091 195.587 144.011 196.248 146.742 197.144C149.814 198.168 152.182 199.149 153.846 200.088C155.552 200.984 156.768 201.987 157.494 203.096C158.262 204.205 158.646 205.571 158.646 207.192C158.646 209.752 157.515 211.8 155.254 213.336C153.035 214.872 150.134 215.64 146.55 215.64ZM187.356 208.664C187.825 209.048 188.06 209.496 188.06 210.008C188.06 210.435 187.868 210.947 187.484 211.544C186.588 212.781 185.351 213.784 183.772 214.552C182.193 215.277 180.572 215.64 178.908 215.64C176.092 215.64 173.873 214.808 172.252 213.144C170.631 211.48 169.82 209.197 169.82 206.296V187.544H166.364C164.657 187.544 163.804 186.883 163.804 185.56C163.804 184.963 164.017 184.493 164.444 184.152C164.913 183.811 165.553 183.64 166.364 183.64H169.82V172.696C169.82 171.885 170.012 171.267 170.396 170.84C170.823 170.371 171.42 170.136 172.188 170.136C172.913 170.136 173.468 170.371 173.852 170.84C174.279 171.267 174.492 171.885 174.492 172.696V183.64H183.196C183.964 183.64 184.561 183.811 184.988 184.152C185.457 184.451 185.692 184.92 185.692 185.56C185.692 186.883 184.86 187.544 183.196 187.544H174.492V206.68C174.492 209.965 176.028 211.608 179.1 211.608C180.081 211.608 180.977 211.416 181.788 211.032C182.599 210.648 183.409 210.029 184.22 209.176C184.86 208.493 185.479 208.152 186.076 208.152C186.46 208.152 186.887 208.323 187.356 208.664ZM206.63 215.64C202.448 215.64 199.163 214.723 196.774 212.888C194.427 211.053 193.254 208.515 193.254 205.272C193.254 202.072 194.491 199.533 196.966 197.656C199.483 195.779 202.896 194.84 207.206 194.84C209.723 194.84 211.942 195.181 213.862 195.864C215.824 196.547 217.339 197.464 218.406 198.616V194.52C218.406 192.088 217.595 190.232 215.974 188.952C214.395 187.672 212.07 187.032 208.998 187.032C205.03 187.032 201.595 187.971 198.694 189.848C197.968 190.275 197.371 190.488 196.902 190.488C196.475 190.488 196.048 190.317 195.622 189.976C195.152 189.592 194.918 189.101 194.918 188.504C194.918 187.864 195.195 187.331 195.75 186.904C197.286 185.709 199.227 184.771 201.574 184.088C203.963 183.363 206.395 183 208.87 183C213.392 183 216.891 184.024 219.366 186.072C221.883 188.12 223.142 191 223.142 194.712V213.144C223.142 214.808 222.374 215.64 220.838 215.64C220.155 215.64 219.6 215.427 219.174 215C218.747 214.531 218.534 213.933 218.534 213.208V210.904C215.888 214.061 211.92 215.64 206.63 215.64ZM207.206 211.736C210.534 211.736 213.243 211.117 215.334 209.88C217.424 208.6 218.47 206.957 218.47 204.952C218.47 202.947 217.488 201.411 215.526 200.344C213.606 199.235 210.875 198.68 207.333 198.68C204.347 198.68 202.043 199.256 200.422 200.408C198.8 201.517 197.99 203.139 197.99 205.272C197.99 207.363 198.779 208.963 200.358 210.072C201.936 211.181 204.219 211.736 207.206 211.736ZM234.161 215.64C233.435 215.64 232.859 215.427 232.433 215C232.049 214.531 231.857 213.891 231.857 213.08V185.56C231.857 184.749 232.049 184.131 232.433 183.704C232.817 183.235 233.393 183 234.161 183C234.886 183 235.441 183.235 235.825 183.704C236.251 184.131 236.465 184.749 236.465 185.56V189.4C239.366 185.56 243.377 183.64 248.497 183.64H250.097C250.907 183.64 251.547 183.832 252.017 184.216C252.486 184.557 252.721 185.048 252.721 185.688C252.721 186.328 252.486 186.819 252.017 187.16C251.547 187.501 250.907 187.672 250.097 187.672H248.305C244.678 187.672 241.798 188.717 239.665 190.808C237.574 192.856 236.529 195.651 236.529 199.192V213.08C236.529 213.848 236.315 214.467 235.889 214.936C235.505 215.405 234.929 215.64 234.161 215.64ZM279.169 208.664C279.638 209.048 279.873 209.496 279.873 210.008C279.873 210.435 279.681 210.947 279.297 211.544C278.401 212.781 277.163 213.784 275.585 214.552C274.006 215.277 272.385 215.64 270.721 215.64C267.905 215.64 265.686 214.808 264.065 213.144C262.443 211.48 261.633 209.197 261.633 206.296V187.544H258.177C256.47 187.544 255.617 186.883 255.617 185.56C255.617 184.963 255.83 184.493 256.257 184.152C256.726 183.811 257.366 183.64 258.177 183.64H261.633V172.696C261.633 171.885 261.825 171.267 262.209 170.84C262.635 170.371 263.233 170.136 264.001 170.136C264.726 170.136 265.281 170.371 265.665 170.84C266.091 171.267 266.305 171.885 266.305 172.696V183.64H275.009C275.777 183.64 276.374 183.811 276.801 184.152C277.27 184.451 277.505 184.92 277.505 185.56C277.505 186.883 276.673 187.544 275.009 187.544H266.305V206.68C266.305 209.965 267.841 211.608 270.913 211.608C271.894 211.608 272.79 211.416 273.601 211.032C274.411 210.648 275.222 210.029 276.033 209.176C276.673 208.493 277.291 208.152 277.889 208.152C278.273 208.152 278.699 208.323 279.169 208.664ZM302.41 215.64C296.863 215.64 292.575 214.211 289.546 211.352C286.517 208.493 285.002 204.44 285.002 199.192C285.002 194.157 286.538 190.211 289.61 187.352C292.682 184.451 296.885 183 302.218 183C305.503 183 308.426 183.533 310.986 184.6C313.546 185.624 315.53 187.096 316.938 189.016C318.389 190.893 319.114 193.048 319.114 195.48C319.114 197.272 318.602 198.659 317.578 199.64C316.597 200.621 315.231 201.112 313.482 201.112H289.802C289.802 204.397 290.911 206.979 293.13 208.856C295.349 210.691 298.442 211.608 302.41 211.608C304.842 211.608 306.933 211.352 308.682 210.84C310.431 210.285 312.074 209.411 313.61 208.216C314.421 207.533 315.082 207.192 315.594 207.192C315.978 207.192 316.341 207.363 316.682 207.704C317.279 208.216 317.578 208.749 317.578 209.304C317.578 209.731 317.322 210.2 316.81 210.712C315.061 212.376 313.013 213.613 310.666 214.424C308.319 215.235 305.567 215.64 302.41 215.64ZM312.074 197.336C312.842 197.336 313.418 197.187 313.802 196.888C314.186 196.547 314.378 195.949 314.378 195.096C314.378 193.56 313.866 192.173 312.842 190.936C311.818 189.699 310.367 188.739 308.49 188.056C306.655 187.373 304.565 187.032 302.218 187.032C298.421 187.032 295.413 187.971 293.194 189.848C291.018 191.683 289.93 194.179 289.93 197.336H312.074ZM340.59 215.64C335.299 215.64 331.118 214.211 328.046 211.352C325.017 208.451 323.502 204.504 323.502 199.512C323.502 196.355 324.163 193.539 325.486 191.064C326.851 188.547 328.814 186.584 331.374 185.176C333.977 183.725 337.091 183 340.718 183C343.79 183 346.393 183.576 348.526 184.728C350.702 185.88 352.622 187.48 354.286 189.528L354.35 168.984C354.35 168.173 354.542 167.555 354.926 167.128C355.353 166.659 355.95 166.424 356.718 166.424C357.443 166.424 357.998 166.659 358.382 167.128C358.809 167.555 359.022 168.173 359.022 168.984V213.08C359.022 213.891 358.809 214.531 358.382 215C357.998 215.427 357.443 215.64 356.718 215.64C355.993 215.64 355.417 215.427 354.99 215C354.563 214.531 354.35 213.891 354.35 213.08V208.984C352.857 211.16 350.937 212.824 348.59 213.976C346.286 215.085 343.619 215.64 340.59 215.64ZM340.974 211.608C345.113 211.608 348.377 210.52 350.766 208.344C353.155 206.125 354.35 203.117 354.35 199.32C354.35 196.803 353.731 194.627 352.494 192.792C351.299 190.915 349.678 189.485 347.63 188.504C345.625 187.523 343.427 187.032 341.038 187.032C337.027 187.032 333.891 188.184 331.63 190.488C329.369 192.749 328.238 195.757 328.238 199.512C328.238 203.523 329.347 206.552 331.566 208.6C333.785 210.605 336.921 211.608 340.974 211.608Z" fill="#8C4242" fill-opacity="0.71" shape-rendering="crispEdges"/>
</g>
<defs>
<filter id="filter0_d_115_125" x="0.687988" y="0.424011" width="450.825" height="238.64" filterUnits="userSpaceOnUse" color-interpolation-filters="sRGB">
<feFlood flood-opacity="0" result="BackgroundImageFix"/>
<feColorMatrix in="SourceAlpha" type="matrix" values="0 0 0 0 0 0 0 0 0 0 0 0 0 0 0 0 0 0 127 0" result="hardAlpha"/>
<feOffset dy="4"/>
<feGaussianBlur stdDeviation="2"/>
<feComposite in2="hardAlpha" operator="out"/>
<feColorMatrix type="matrix" values="0 0 0 0 0 0 0 0 0 0 0 0 0 0 0 0 0 0 0.25 0"/>
<feBlend mode="normal" in2="BackgroundImageFix" result="effect1_dropShadow_115_125"/>
<feBlend mode="normal" in="SourceGraphic" in2="effect1_dropShadow_115_125" result="shape"/>
</filter>
</defs>
</svg>
