<svg width="33" height="33" viewBox="0 0 33 33" fill="none" xmlns="http://www.w3.org/2000/svg">
<path d="M26.8125 13.4063C26.8125 16.3647 25.8521 19.0975 24.2344 21.3147L32.3941 29.4809C33.1998 30.2865 33.1998 31.5949 32.3941 32.4006C31.5885 33.2063 30.2801 33.2063 29.4744 32.4006L21.3146 24.2344C19.0975 25.8586 16.3646 26.8125 13.4062 26.8125C6.00059 26.8125 0 20.8119 0 13.4063C0 6.00059 6.00059 0 13.4062 0C20.8119 0 26.8125 6.00059 26.8125 13.4063ZM13.4062 22.6875C14.6251 22.6875 15.832 22.4474 16.958 21.981C18.0841 21.5146 19.1072 20.8309 19.9691 19.9691C20.8309 19.1072 21.5146 18.0841 21.981 16.958C22.4474 15.832 22.6875 14.6251 22.6875 13.4063C22.6875 12.1874 22.4474 10.9805 21.981 9.85447C21.5146 8.72842 20.8309 7.70526 19.9691 6.84342C19.1072 5.98157 18.0841 5.29792 16.958 4.83149C15.832 4.36507 14.6251 4.125 13.4062 4.125C12.1874 4.125 10.9805 4.36507 9.85447 4.83149C8.72842 5.29792 7.70526 5.98157 6.84341 6.84342C5.98157 7.70526 5.29792 8.72842 4.83149 9.85447C4.36507 10.9805 4.125 12.1874 4.125 13.4063C4.125 14.6251 4.36507 15.832 4.83149 16.958C5.29792 18.0841 5.98157 19.1072 6.84341 19.9691C7.70526 20.8309 8.72842 21.5146 9.85447 21.981C10.9805 22.4474 12.1874 22.6875 13.4062 22.6875Z" fill="#B78383"/>
</svg>
